<svg width="866" height="108" viewBox="0 0 866 108" fill="none" xmlns="http://www.w3.org/2000/svg">
<path d="M458.8 106.522H433.742V6.13965H458.8V42.9916H489.313V6.13965H514.371V106.522H489.313V65.9866H458.8V106.522Z" fill="#0F427A"/>
<path d="M520.268 56.4062C520.268 23.5307 538.843 4.66211 570.091 4.66211C601.339 4.66211 619.622 23.5307 619.622 56.4062C619.622 89.2816 601.046 108 570.091 108C539.136 108 520.268 88.839 520.268 56.4062ZM570.091 84.4128C585.861 84.4128 594.264 74.8321 594.264 56.4062C594.264 37.9802 585.861 28.2496 570.091 28.2496C554.321 28.2496 545.618 37.8303 545.618 56.4062C545.618 74.982 554.021 84.4128 570.091 84.4128Z" fill="#0F427A"/>
<path d="M628.918 63.9234V6.13965H653.976V58.7618C653.976 76.1526 657.517 83.3774 669.161 83.3774C680.805 83.3774 684.346 76.1526 684.346 58.7618V6.13965H709.404V63.9234C709.404 94.1431 697.46 108 669.161 108C640.862 108 628.918 93.9932 628.918 63.9234Z" fill="#0F427A"/>
<path d="M764.239 75.4175C764.239 69.9633 758.635 65.8369 742.714 61.2679C723.111 55.8136 716.328 46.6756 716.328 33.7039C716.328 14.6854 729.45 4.66211 755.686 4.66211C768.508 4.66211 778.831 7.01801 790.918 12.9149L785.313 36.7951C773.52 31.3409 765.117 29.2777 755.979 29.2777C746.841 29.2777 742.122 31.3409 742.122 36.5024C742.122 41.2213 746.106 44.4625 762.168 49.1814C781.33 54.7856 791.06 63.7737 791.06 78.6658C791.06 96.0566 779.117 108 747.719 108C733.712 108 725.752 105.644 715.286 100.483L718.527 73.2116C728.258 80.2864 735.04 83.3847 748.454 83.3847C757.007 83.3847 764.225 81.6143 764.225 75.4247L764.239 75.4175Z" fill="#0F427A"/>
<path d="M865.072 106.522H796.965V6.13965H861.973V28.8419L822.023 28.1066V43.2914H853.128V65.6939H822.023V84.2697L865.065 83.5344V106.529L865.072 106.522Z" fill="#0F427A"/>
<path d="M200.387 106.437H166.783V0H200.387C238.988 0 257.749 19.6896 257.749 53.2932C257.749 86.8969 238.995 106.429 200.387 106.429V106.437ZM193.355 82.0566H203.671C222.896 81.8995 230.864 71.8977 230.864 52.5151C230.864 33.1325 222.889 23.9159 203.671 23.6018L193.355 23.4447V82.0566Z" fill="#0F427A"/>
<path d="M289.94 75.4879C292.439 81.8988 297.757 85.1756 305.881 85.1756C314.006 85.1756 321.195 82.677 328.234 76.5802L333.238 99.0897C324.172 105.651 316.519 107.999 302.448 107.999C278.532 107.999 263.689 92.3718 263.689 65.329C263.689 38.2862 278.853 24.6934 304.325 24.6934C324.172 24.6934 335.116 33.6029 335.116 49.3874C335.116 66.7354 321.987 74.8668 289.947 75.4879H289.94ZM289.94 65.4861C304.161 65.4861 311.664 61.1098 311.664 53.9207C311.664 48.6093 307.759 46.4176 302.597 46.4176C293.374 46.4176 288.533 52.8285 288.376 65.4861H289.94Z" fill="#0F427A"/>
<path d="M388.552 26.2568H414.181L390.893 106.436H359.481L335.565 26.2568H363.858L376.358 80.0212L388.552 26.2568Z" fill="#0F427A"/>
<path d="M68.9278 108H0V1.56348H26.5717V84.3982L68.9278 83.6201V108Z" fill="#0F427A"/>
<path d="M113.511 89.8741L95.385 108L55.1562 34.8389L77.3731 12.6221L150.977 52.4082L130.973 72.4119L108.449 67.5716L113.511 89.8741Z" fill="#0F427A"/>
</svg>
