<svg width="729" height="381" viewBox="0 0 729 381" fill="none" xmlns="http://www.w3.org/2000/svg">
<path d="M116.38 179.71H0V0H44.86V139.87L116.38 138.55V179.72V179.71Z" fill="#0F427A"/>
<path d="M367.31 179.71H310.57V0H367.31C432.49 0 464.16 33.25 464.16 89.99C464.16 146.73 432.49 179.71 367.31 179.71ZM355.44 138.55H372.86C405.32 138.29 418.78 121.4 418.78 88.67C418.78 55.94 405.32 40.38 372.86 39.85L355.44 39.59V138.55Z" fill="#0F427A"/>
<path d="M518.51 127.46C522.73 138.28 531.7 143.82 545.43 143.82C559.16 143.82 571.29 139.6 583.17 129.31L591.61 167.31C576.3 178.39 563.37 182.35 539.62 182.35C499.24 182.35 474.17 155.96 474.17 110.31C474.17 64.6602 499.77 41.7002 542.78 41.7002C576.3 41.7002 594.77 56.7402 594.77 83.4002C594.77 112.69 572.6 126.42 518.5 127.47L518.51 127.46ZM518.51 110.57C542.52 110.57 555.19 103.18 555.19 91.0402C555.19 82.0702 548.59 78.3702 539.88 78.3702C524.31 78.3702 516.13 89.1902 515.87 110.57H518.51Z" fill="#0F427A"/>
<path d="M685.02 44.3398H728.3L688.98 179.72H635.94L595.56 44.3398H643.33L664.44 135.12L685.02 44.3398Z" fill="#0F427A"/>
<path d="M191.66 149.11L161.06 179.71L93.1396 56.1799L130.65 18.6699L254.93 85.8499L221.15 119.63L183.12 111.46L191.67 149.12L191.66 149.11Z" fill="#0F427A"/>
<path d="M42.31 378.41H0V208.91H42.31V271.13H93.83V208.91H136.14V378.41H93.83V309.96H42.31V378.41Z" fill="#0F427A"/>
<path d="M146.11 293.78C146.11 238.28 177.47 206.42 230.24 206.42C283.01 206.42 313.87 238.28 313.87 293.78C313.87 349.28 282.51 380.89 230.24 380.89C177.97 380.89 146.11 348.53 146.11 293.78ZM230.24 341.07C256.87 341.07 271.06 324.89 271.06 293.78C271.06 262.67 256.87 246.24 230.24 246.24C203.61 246.24 188.92 262.42 188.92 293.78C188.92 325.14 203.11 341.07 230.24 341.07Z" fill="#0F427A"/>
<path d="M329.55 306.48V208.91H371.86V297.77C371.86 327.14 377.83 339.34 397.5 339.34C417.17 339.34 423.14 327.14 423.14 297.77V208.91H465.45V306.48C465.45 357.5 445.29 380.9 397.5 380.9C349.71 380.9 329.55 357.25 329.55 306.48Z" fill="#0F427A"/>
<path d="M558.05 325.89C558.05 316.68 548.59 309.71 521.71 302C488.61 292.79 477.16 277.36 477.16 255.46C477.16 223.35 499.31 206.43 543.62 206.43C565.27 206.43 582.7 210.41 603.11 220.37L593.65 260.69C573.74 251.48 559.55 248 544.12 248C528.69 248 520.72 251.48 520.72 260.2C520.72 268.16 527.44 273.64 554.57 281.61C586.93 291.07 603.35 306.25 603.35 331.39C603.35 360.76 583.19 380.92 530.17 380.92C506.53 380.92 493.08 376.94 475.41 368.23L480.89 322.18C497.32 334.13 508.77 339.35 531.42 339.35C545.86 339.35 558.05 336.36 558.05 325.91V325.89Z" fill="#0F427A"/>
<path d="M728.3 378.41H613.31V208.91H723.07V247.24L655.62 246V271.64H708.14V309.47H655.62V340.83L728.3 339.59V378.42V378.41Z" fill="#0F427A"/>
</svg>
